<?xml version="1.0" standalone="no"?>
<!DOCTYPE svg PUBLIC "-//W3C//DTD SVG 20010904//EN"
 "http://www.w3.org/TR/2001/REC-SVG-20010904/DTD/svg10.dtd">
<svg version="1.0" xmlns="http://www.w3.org/2000/svg"
 width="54.000000pt" height="51.000000pt" viewBox="0 0 54.000000 51.000000"
 preserveAspectRatio="xMidYMid meet">

<g transform="translate(0.000000,51.000000) scale(0.100000,-0.100000)"
fill="#000000" stroke="none">
<path d="M68 449 c-16 -9 -18 -28 -18 -159 0 -177 -6 -170 131 -170 87 0 93
-1 125 -29 37 -33 60 -32 95 5 12 13 32 24 45 24 12 0 26 6 32 13 5 6 13 74
17 149 9 188 22 178 -222 178 -109 0 -195 -5 -205 -11z m377 -164 l0 -120 -25
-3 c-14 -2 -35 -13 -48 -25 l-22 -21 -28 27 c-27 26 -33 27 -130 27 l-102 0 0
113 c0 63 3 117 7 121 4 3 84 5 177 4 l171 -3 0 -120z"/>
<path d="M202 333 c2 -10 10 -18 18 -18 8 0 16 8 18 18 2 12 -3 17 -18 17 -15
0 -20 -5 -18 -17z"/>
<path d="M305 340 c-8 -13 3 -30 20 -30 14 0 27 24 18 34 -10 9 -31 7 -38 -4z"/>
<path d="M140 295 c0 -19 66 -63 108 -71 40 -8 110 17 141 50 31 33 11 40 -29
11 -47 -35 -123 -35 -174 0 -43 29 -46 30 -46 10z"/>
</g>
</svg>
